<?xml version="1.0" encoding="utf-8"?>
<!-- Generator: Adobe Illustrator 22.0.1, SVG Export Plug-In . SVG Version: 6.00 Build 0)  -->
<svg version="1.1" id="Layer_1" xmlns="http://www.w3.org/2000/svg" xmlns:xlink="http://www.w3.org/1999/xlink" x="0px" y="0px"
	 viewBox="0 0 1920 1080" style="enable-background:new 0 0 1920 1080;" xml:space="preserve">
<style type="text/css">
	.st0{fill:#494089;}
	.st1{fill:#FFFFFF;}
	.st2{fill-rule:evenodd;clip-rule:evenodd;fill:#A37DFF;}
	.st3{fill-rule:evenodd;clip-rule:evenodd;fill:#CCBBFF;}
	.st4{fill-rule:evenodd;clip-rule:evenodd;fill:#FFFFFF;}
	.st5{fill-rule:evenodd;clip-rule:evenodd;fill:#90C9EA;}
	.st6{fill-rule:evenodd;clip-rule:evenodd;fill:#ABC3FF;}
	.st7{fill-rule:evenodd;clip-rule:evenodd;fill:#79A1F2;}
	.st8{fill-rule:evenodd;clip-rule:evenodd;fill:#618DE5;}
	.st9{fill-rule:evenodd;clip-rule:evenodd;fill:#7B91FF;}
	.st10{fill-rule:evenodd;clip-rule:evenodd;fill:#80C3FF;}
	.st11{fill-rule:evenodd;clip-rule:evenodd;fill:#494089;}
</style>
<g>
	<path class="st0" d="M840.8,813.5c1.1,2.6,1.4,5.6,1,8.7c-2,15.9-22.3,36.9-51.4,51.7c-34.8,17.7-69.3,19.8-78.4,5.2
		c-0.2-0.4-0.5-0.7-0.7-1.1c-8.1-15.8,14.3-43.4,50-61.5c2.4-1.2,4.8-2.4,7.2-3.5c6-2.7,12-4.9,17.8-6.7c0,0,0,0,0,0
		c2.3-0.7,4.6-1.3,6.8-1.9c11.6-2.8,22.1-3.6,30.5-2.2c0.3,0.1,0.7,0.1,1,0.2c0.7,0.1,1.3,0.3,1.9,0.4c0.3,0.1,0.6,0.2,0.9,0.2
		c0.6,0.2,1.2,0.3,1.8,0.5c0.6,0.2,1.2,0.4,1.7,0.6c1.1,0.5,2.1,0.9,3.1,1.5c0.5,0.3,0.9,0.6,1.4,0.9c0.4,0.3,0.9,0.6,1.3,1
		c0.2,0.2,0.4,0.4,0.6,0.5c1.3,1.2,2.4,2.6,3.2,4.2C840.5,812.8,840.7,813.2,840.8,813.5z"/>
	<path class="st0" d="M1070.3,955.8c-2.1,15.9-26.7,25.8-55,22c-28.3-3.7-49.5-19.6-47.4-35.5c0.3-2.6,1.3-5,2.7-7.2
		c0.7-1.1,1.5-2.2,2.5-3.2c0.3-0.3,0.7-0.7,1-1c0.7-0.7,1.4-1.3,2.2-1.9c0.4-0.3,0.8-0.6,1.2-0.9c0.8-0.6,1.7-1.1,2.6-1.7
		c1.4-0.8,2.9-1.5,4.4-2.2c1-0.5,2.1-0.9,3.2-1.3c9.7-3.4,22-4.6,35.2-2.8C1051.2,924,1072.4,939.9,1070.3,955.8z"/>
	<path class="st0" d="M1275.4,851.9c2.8,5.9,3.3,11.2,0.9,15.1c-0.2,0.2-0.3,0.5-0.5,0.7c-0.2,0.2-0.4,0.5-0.5,0.7
		c-0.2,0.2-0.4,0.4-0.6,0.6c-0.8,0.7-1.7,1.3-2.7,1.8c-0.2,0.1-0.4,0.2-0.7,0.3c0,0,0,0-0.1,0c-9.8,4.3-28.9,0-47.5-11.7
		c-22.2-13.9-35.4-33-30.2-43.3c0.1-0.3,0.3-0.5,0.4-0.8c3.7-5.9,13.4-7.2,25.3-4.4c1.4,0.3,2.9,0.7,4.4,1.2
		c1.6,0.5,3.3,1.1,4.9,1.7c3.3,1.3,6.8,2.8,10.2,4.6c0.9,0.5,1.7,0.9,2.6,1.4c1.7,0.9,3.5,2,5.2,3.1c1.2,0.7,2.3,1.5,3.5,2.3
		c1.7,1.1,3.3,2.3,4.9,3.5C1264.7,836.2,1271.9,844.5,1275.4,851.9z"/>
	<path class="st0" d="M1874.6,778.8c-4,61.1-30.2,121.7-76.5,161.8c-41,35.6-94.6,53.3-147.7,64.6c-75,16-150.7,20.8-227,19.3
		c-4.4-15.3-9.5-30.2-15.4-44.7l0.5-0.2c9.3-3.7,13.8-14.2,10.1-23.5l-22.4-56c-3.7-9.3-14.2-13.8-23.5-10.1l-10.6,4.2
		c-12.4-18.1-26-35.3-40.8-51.4c4.5-7.8,2.5-17.8-4.8-23.4l-14.5-11l7.2-11.8l0.1,0l30.7,18.9h0.1c0,0,6.6-7.3,9.8-11.6
		c3.2-4.3,6.2-8.6,8.8-12.9c5.4-8.8,13.2-27.2,13.2-27.2l0-0.1l-30.7-18.9l0-0.1l42-68.4l0-0.1c0,0-9.6-7.3-14.5-10.9
		c-4.9-3.6-9.9-7-15-10.1c-4.9-3-9.7-5.7-14.5-8c-4.8-2.4-15-7.2-15-7.2l-0.1,0l-42,68.4l-0.1,0L1221,671v0l197.9-124.6l0-0.1
		c0,0-9.8-21-16.9-29.5c-7.2-8.5-24.2-23.4-24.2-23.4l-0.1,0l-271.3,170.3l0,0.1l0.2,8.3l0,0.1l143.7,88.3v0l-3.7,6.1l-3.7-2.8
		c-5.8-4.4-13.5-4.7-19.5-1.5c-45-27.5-95.2-47.4-148.7-57.8c-11.1-2.2-22.4-4-33.8-5.3c-10.9-1.3-21.8-2.2-32.9-2.7
		c-6.9-0.3-13.8-0.5-20.8-0.5c-45.3,0-89,6.6-130.3,19c-9.9,3-19.6,6.2-29.2,9.8l-3.3-4.5c-5.8-8.1-17.1-10-25.3-4.1l-5.1,3.7
		l-16.3-27.5l0-0.1l31-18.3l0-0.1c0,0-3.4-9.2-5.7-14.1c-2.3-4.9-4.7-9.5-7.3-13.8c-5.3-8.9-17.9-24.4-17.9-24.4l-0.1,0l-31,18.4
		l0,0L706,570.7l-0.1,0c0,0-11,5-16.4,7.7c-5.4,2.6-10.8,5.5-15.9,8.6c-4.9,2.9-9.5,5.9-13.9,9.1c-4.4,3.2-13.3,9.9-13.3,9.9l0,0.1
		l40.8,69.1l0,0.1l-61.7,36.5l0,0l-17.7-233.2l0,0c0,0-23.1-1.2-34,1.2c-10.9,2.3-32,10.4-32,10.4l0,0.1l23.8,319.4l0,0.1l7.4,3.7
		h0.1l145.1-85.8l0.1,0l19.4,32.8l-13.5,9.7c-5.1,3.7-7.8,9.6-7.5,15.4c-32.5,24.2-61.7,52.7-86.7,84.6l-7-3.7
		c-8.8-4.7-19.8-1.3-24.4,7.6l-43.1,81.8c-4.7,8.8-1.3,19.8,7.6,24.4l2.7,1.4c-2.5,6.3-4.9,12.7-7.1,19.1
		c-82.2,21.1-163.2,49.2-247.7,53.4c-101.6,5-215.7-36.1-254.9-129.9c-10.7-25.6-14.9-55.3-4.1-80.9c16.4-38.8,60.2-56.1,96.2-77.9
		c36-21.8,70-64.9,51.1-102.5c-12.2-24.2-40.8-33.9-64.1-47.6C87,587.1,55.3,530,65.1,475.4c15-83.8,108.8-124.5,189.8-150.6
		c216.8-70,437.2-129.6,653.4-201.1c131.5-43.4,318.3-181.1,447.3-65.4c18.8,16.8,33.6,40.4,32.4,65.6
		c-2.3,46.3-54.7,74.6-68.2,118.9c-2.4,7.9-3.4,17,0.8,24.1c4.3,7.3,12.9,10.8,21.1,13.1c110.2,30.6,227.6-73.7,335.4-35.5
		c42.3,15,75.9,52.4,86.4,96c10.5,43.6-2.5,92.2-33.4,124.7c-32.1,33.9-79.3,49.1-114.6,79.5c-17.4,15-32.5,37.6-25.9,59.6
		c6.3,20.9,30.3,31.8,52.1,31.6c21.8-0.1,42.6-8.5,63.7-13.8c33.1-8.4,69.6-9,100.1,6.4C1857.8,654.8,1878.4,720.5,1874.6,778.8z"/>
	<path class="st1" d="M1275.4,851.9l-2.8,4.5l-0.1,0c0,0-3.4-1.6-7.2-3.4c-2.8-1.3-5.7-2.7-7.7-3.7c-4.8-2.4-9.7-5.1-14.5-8
		c-5.1-3.2-10.1-6.5-15-10.1c-4.9-3.6-14.5-10.9-14.5-10.9l0-0.1l0.8-1.3l4.8-7.8c1.4,0.3,2.9,0.7,4.4,1.2c1.6,0.5,3.3,1.1,4.9,1.7
		c3.3,1.3,6.8,2.8,10.2,4.6c0.9,0.5,1.7,0.9,2.6,1.4c1.7,0.9,3.5,2,5.2,3.1c1.2,0.7,2.3,1.5,3.5,2.3c1.7,1.1,3.3,2.3,4.9,3.5
		C1264.7,836.2,1271.9,844.5,1275.4,851.9z"/>
	<path class="st2" d="M1118.6,594.8c0,4.5-0.2,8.9-0.6,13.2c-0.1,1.3-0.2,2.6-0.4,3.9c-0.1,1.5-0.3,3-0.5,4.4
		c-0.1,0.5-0.1,0.9-0.2,1.4c0,0.4-0.1,0.7-0.2,1.1c-5,32.9-20.1,62.5-42.1,85.5c-11.1-2.2-22.4-4-33.8-5.3
		c-10.9-1.3-21.8-2.2-32.9-2.7c-6.9-0.3-13.8-0.5-20.8-0.5c-45.3,0-89,6.6-130.3,19c-2.7-2.3-5.4-4.8-7.9-7.3
		c-0.7-0.7-1.4-1.4-2.1-2.1c-2.7-2.8-5.4-5.7-7.8-8.6c-0.7-0.8-1.4-1.7-2.1-2.5c-1.1-1.4-2.3-2.9-3.4-4.3c-0.6-0.8-1.2-1.6-1.7-2.3
		c-7.5-10.2-13.7-21.4-18.5-33.3c-1.3-3.2-2.5-6.6-3.6-9.9c-0.2-0.7-0.5-1.4-0.7-2c-0.3-1-0.6-1.9-0.9-2.9c0-0.1-0.1-0.2-0.1-0.3
		c0-0.1-0.1-0.2-0.1-0.3c-0.1-0.5-0.3-0.9-0.4-1.4c-0.2-0.7-0.4-1.4-0.6-2.1c-0.2-0.9-0.5-1.9-0.7-2.9c0-0.1,0-0.1,0-0.2
		c-0.3-1.1-0.5-2.2-0.8-3.3c-0.2-1.1-0.5-2.2-0.7-3.3c0,0,0,0,0-0.1c-2-10-3.1-20.4-3.1-31c0-71.4,47.3-131.7,112.2-151.5
		c0,0,0,0,0,0c0.9-0.3,1.8-0.5,2.7-0.8c1.8-0.5,3.7-1,5.6-1.5c2.8-0.7,5.6-1.3,8.5-1.8c0.9-0.2,1.9-0.4,2.9-0.5
		c1.2-0.2,2.5-0.4,3.7-0.6c1.2-0.2,2.5-0.4,3.7-0.5c0.7-0.1,1.4-0.2,2.1-0.3c1.9-0.2,3.8-0.4,5.7-0.5c0.7-0.1,1.4-0.1,2.1-0.1
		c3-0.2,6.1-0.3,9.1-0.3c2.2,0,4.4,0,6.6,0.1c0.5,0,1,0,1.5,0.1c1.3,0.1,2.6,0.1,3.9,0.2c0,0,0.1,0,0.1,0c1.3,0.1,2.5,0.2,3.8,0.3
		c0.3,0,0.6,0,0.9,0.1c1.1,0.1,2.2,0.2,3.2,0.4c0.1,0,0.2,0,0.3,0c1.3,0.2,2.5,0.3,3.8,0.5c3,0.5,6,1,9,1.6c1.5,0.3,3.1,0.7,4.5,1
		c1.5,0.4,3,0.7,4.5,1.2c0.7,0.2,1.5,0.4,2.2,0.6c1.5,0.4,3,0.9,4.4,1.4c0.7,0.2,1.4,0.5,2.2,0.7c2,0.7,4,1.4,6,2.2
		c1,0.4,2.1,0.8,3.1,1.2c0.9,0.4,1.8,0.7,2.7,1.1c1.2,0.5,2.4,1.1,3.6,1.6c0.6,0.3,1.2,0.6,1.7,0.8c28.5,13.6,52.3,35.5,68.3,62.5
		c0,0,0,0,0,0c0.8,1.3,1.5,2.6,2.2,3.8c0.7,1.3,1.4,2.6,2.1,3.9c0.7,1.3,1.3,2.6,2,4c0.5,0.9,0.9,1.9,1.4,2.8c0,0.1,0.1,0.2,0.1,0.3
		c0.2,0.5,0.4,1,0.7,1.5c0.5,1.2,1,2.3,1.5,3.5c1.7,4.1,3.2,8.4,4.6,12.7C1116.1,562,1118.6,578.1,1118.6,594.8z"/>
	<path class="st3" d="M803.1,575.1c47,6.7,126-26.9,151.3-31.8c51.5-10,104.4,1.9,156.8,3.6c-3.6-11.5-8.6-22.4-14.6-32.5
		c-19.3,0.8-39.6-2.6-59.1-3.1c-37-1.1-73.7,8.6-110.6,6.4c-17.1-1-55.4-16-90.4-21.8C818.8,518.1,806.8,545.3,803.1,575.1
		L803.1,575.1z"/>
	<path class="st3" d="M960.2,436.4c-16.1,0-31.6,2.4-46.3,6.9c19.8,11.3,59.6,15.4,68.8,16.6c16.6,2.2,34.6,3,48.9-5.8l0.6-0.4
		C1010.7,442.7,986.2,436.4,960.2,436.4L960.2,436.4z"/>
	<path class="st3" d="M1118.6,597c-45.6-11.5-94-12.5-140-2.4c-25,5.5-49.2,14-74,20.2c-31.2,7.7-63.4,11.4-95.6,11.2
		c-1.4,0-2.7-0.1-4.1-0.1c6.3,31.7,22,60,44.2,81.8c37.9-13.4,74.4-31.1,108.4-52.5c29.8-18.8,59.6-41.1,94.7-44.3
		c21.8-2,43.2,3.7,64.7,8.1C1117.9,611.7,1118.5,604.4,1118.6,597L1118.6,597z"/>
	<path class="st3" d="M1110.2,645.8c-3.1,9-6.9,17.7-11.5,25.9c-14,3.6-29.4,5.8-33.8,7.7c-9.9,4.2-17.5,11.3-24,19.7
		c-10.9-1.3-21.8-2.2-32.9-2.7c2.9-1.4,5.7-3,8.4-4.8c9.1-6.2,16.1-14.9,24.5-22C1050.3,661.5,1088.7,642.6,1110.2,645.8z"/>
	<path class="st4" d="M840.8,813.5c1.1,2.6,1.4,5.6,1,8.7c-2,15.9-22.3,36.9-51.4,51.7c-34.8,17.7-69.3,19.8-78.4,5.2
		c-0.2-0.4-0.5-0.7-0.7-1.1c-8.1-15.8,14.3-43.4,50-61.5c2.4-1.2,4.8-2.4,7.2-3.5c6-2.7,12-4.9,17.8-6.7c0,0,0,0,0,0
		c2.3-0.7,4.6-1.3,6.8-1.9c11.6-2.8,22.1-3.6,30.5-2.2c0.3,0.1,0.7,0.1,1,0.2c0.7,0.1,1.3,0.3,1.9,0.4c0.3,0.1,0.6,0.2,0.9,0.2
		c0.6,0.2,1.2,0.3,1.8,0.5c0.6,0.2,1.2,0.4,1.7,0.6c1.1,0.5,2.1,0.9,3.1,1.5c0.5,0.3,0.9,0.6,1.4,0.9c0.4,0.3,0.9,0.6,1.3,1
		c0.2,0.2,0.4,0.4,0.6,0.5c1.3,1.2,2.4,2.6,3.2,4.2C840.5,812.8,840.7,813.2,840.8,813.5z"/>
	<path class="st4" d="M1070.3,955.8c-2.1,15.9-26.7,25.8-55,22c-28.3-3.7-49.5-19.6-47.4-35.5c0.3-2.6,1.3-5,2.7-7.2
		c0.7-1.1,1.5-2.2,2.5-3.2c0.3-0.3,0.7-0.7,1-1c0.7-0.7,1.4-1.3,2.2-1.9c0.4-0.3,0.8-0.6,1.2-0.9c0.8-0.6,1.7-1.1,2.6-1.7
		c1.4-0.8,2.9-1.5,4.4-2.2c1-0.5,2.1-0.9,3.2-1.3c9.7-3.4,22-4.6,35.2-2.8C1051.2,924,1072.4,939.9,1070.3,955.8z"/>
	<path class="st4" d="M1276.3,867c-0.2,0.2-0.3,0.5-0.5,0.7c-0.2,0.2-0.4,0.5-0.5,0.7c-0.2,0.2-0.4,0.4-0.6,0.6
		c-0.8,0.7-1.7,1.3-2.7,1.8c-0.2,0.1-0.4,0.2-0.7,0.3c0,0,0,0-0.1,0c-9.8,4.3-28.9,0-47.5-11.7c-22.2-13.9-35.4-33-30.2-43.3
		c0.1-0.3,0.3-0.5,0.4-0.8c3.7-5.9,13.4-7.2,25.3-4.4c1.4,0.3,2.9,0.7,4.4,1.2c1.6,0.5,3.3,1.1,4.9,1.7c3.3,1.3,6.8,2.8,10.2,4.6
		c0.9,0.5,1.7,0.9,2.6,1.4c1.7,0.9,3.5,2,5.2,3.1c1.2,0.7,2.3,1.5,3.5,2.3c1.7,1.1,3.3,2.3,4.9,3.5c9.8,7.5,17,15.7,20.5,23.1
		C1278.2,857.8,1278.7,863.1,1276.3,867z"/>
	<path class="st5" d="M1070.3,955.8c-2.1,15.9-26.7,25.8-55,22c-28.3-3.7-49.5-19.6-47.4-35.5c0.3-2.6,1.3-5,2.7-7.2
		c0.7-1.1,1.5-2.2,2.5-3.2c0.3-0.3,0.7-0.7,1-1c0.7-0.6,1.4-1.3,2.2-1.9c0.4-0.3,0.8-0.6,1.2-0.9c0.8-0.6,1.7-1.1,2.6-1.7
		c1.4-0.8,2.9-1.5,4.4-2.2c1-0.5,2.1-0.9,3.2-1.3c9.7-3.4,22-4.6,35.2-2.8C1051.2,924,1072.4,939.9,1070.3,955.8z"/>
	<path class="st6" d="M714.8,324.8c0,32.4-26.2,58.6-58.6,58.6s-58.6-26.2-58.6-58.6c0-32.4,26.2-58.6,58.6-58.6
		S714.8,292.4,714.8,324.8L714.8,324.8z"/>
	<path class="st7" d="M656.2,266.2c-10.4,0-20.2,2.7-28.7,7.5c0.4,0.7,0.9,1.4,1.4,1.9c5.9,6,20,6.2,27.9,6.6
		c11.5,0.5,23.1-1,34.1-4.5C681.3,270.5,669.3,266.2,656.2,266.2L656.2,266.2z"/>
	<path class="st7" d="M701,297.6c1.9-0.7,3.9-1.4,5.7-2.4c-1.5-2.6-3.2-5.1-5.1-7.4c-5.8,2.6-11.7,5.2-17.5,7.9
		c-4.5,2-9.1,4.1-13.9,5.3c-7.1,1.9-14.5,2-21.8,1.9c-15.2-0.1-30-1.6-45-3.2c-3.6,7.6-5.7,16.1-5.7,25.1c0,4.3,0.5,8.4,1.3,12.4
		c3.1-1.2,5.8-3.2,8.6-5c7.5-4.7,15.9-7.7,24.3-10.6C654.9,313.6,678,305.6,701,297.6L701,297.6z"/>
	<path class="st7" d="M710.1,301.7c-4.5,4.1-7.9,9.4-12.9,13.3c-5.2,4.1-11,7.4-17.2,9.8c-4.3,1.7-8.9,3-13,5.1
		c-1.5,0.8-3.2,1.9-3.6,3.6c-0.7,3,2.8,5.1,5.8,5.8c5.9,1.4,12.1,1.1,18.2,0.9l21.6-0.9c1.3-0.1,2.6-0.2,3.9-0.3
		c1.1-4.5,1.8-9.2,1.8-14.1C714.8,316.6,713.1,308.8,710.1,301.7L710.1,301.7z"/>
	<path class="st7" d="M657.8,323.2c-10.4,2.1-20.6,5.4-30.3,9.9c-6.4,3-12.7,6.5-19.5,8.5c-1.9,0.6-4.6,0.8-7.7,1
		c3.5,10.9,10,20.4,18.6,27.5c0.6-0.7,1.2-1.4,1.7-2.2c8.8-11.6,14.7-26.3,27.4-33.6c2.3-1.3,4.8-2.4,6.8-4.1
		C656.9,328.5,658.4,325.8,657.8,323.2L657.8,323.2z"/>
	<path class="st7" d="M709.1,349.8c-0.7-0.1-1.3-0.1-1.9-0.1l-37.5,2.1c-7.8,0.4-16,1-22.4,5.4c-5,3.4-8.3,8.6-11.5,13.7
		c-1.1,1.7-3,4.1-4.8,6.7c7.2,3.5,15.2,5.5,23.7,5.7c1.5-1.9,2.9-4,4.4-6c8.4-11.1,21.4-18.5,35.3-19.9c3.7-0.4,7.4-0.4,11-0.8
		C706.8,354.5,708,352.2,709.1,349.8L709.1,349.8z"/>
	<path class="st8" d="M710,348.1c1.5-3.5,2.7-7.1,3.5-10.9c-15.1,5.4-32.9,10.1-51.9,13.8c-19.3,3.7-37.8,6-53.9,6.6
		c2.2,3.2,4.6,6.1,7.3,8.8c14.8-0.9,31.3-3.1,48.3-6.4C680.1,356.8,696,352.7,710,348.1L710,348.1z"/>
	<path class="st1" d="M598.8,362.3c-21,0-38.1-3.4-40.1-13.4c-1.8-9.5,10.6-19.4,36.9-29.3c2.4-0.9,5,0.3,5.9,2.7
		c0.9,2.4-0.3,5-2.7,5.9c-26.7,10.1-31.4,17.7-31.1,19c1,5,34.1,10.8,93.8-0.7c25.1-4.9,48.2-11.6,65.1-19
		c19.3-8.4,22.5-14.3,22.3-15.4c-0.3-1.4-7.8-6.8-37.9-5.9c-2.5,0.1-4.7-1.9-4.7-4.5c-0.1-2.5,1.9-4.7,4.5-4.7
		c29.4-0.9,45.3,3.6,47.2,13.4c1.6,8.4-7.4,16.7-27.6,25.6c-17.5,7.6-41.3,14.6-67,19.6C645.8,358.8,620.3,362.3,598.8,362.3
		L598.8,362.3z"/>
	<path class="st9" d="M1604.4,456.4c-12.4,22.9-41.1,31.4-64,19c-22.9-12.4-31.4-41.1-19-64c12.4-22.9,41.1-31.4,64-19
		C1608.3,404.9,1616.8,433.5,1604.4,456.4L1604.4,456.4z"/>
	<path class="st10" d="M1585.4,392.5c-7.4-4-15.3-5.8-23.2-5.7c0,0.7,0.1,1.3,0.3,1.9c1.9,6.5,11.8,12.1,17.2,15.4
		c7.9,4.8,16.8,8.2,25.9,9.9C1601.5,405.1,1594.6,397.5,1585.4,392.5L1585.4,392.5z"/>
	<path class="st10" d="M1605.1,431.8c1.6,0.3,3.3,0.5,4.9,0.5c-0.1-2.4-0.3-4.8-0.8-7.2c-5.1-0.4-10.3-0.8-15.4-1.2
		c-4-0.3-8-0.6-11.9-1.6c-5.7-1.4-11-4.2-16.2-7c-10.7-5.9-20.7-12.6-30.7-19.5c-5.5,4-10.2,9.2-13.7,15.6c-1.6,3-2.9,6.1-3.8,9.3
		c2.7,0.3,5.4-0.1,8-0.2c7.1-0.5,14.2,0.7,21.3,1.8C1566.3,425.5,1585.7,428.7,1605.1,431.8L1605.1,431.8z"/>
	<path class="st10" d="M1609.9,438.2c-4.8,1.1-9.2,3.7-14.2,4.5c-5.3,0.9-10.6,1-15.9,0.4c-3.7-0.5-7.4-1.3-11.2-1.4
		c-1.4,0-3,0.1-3.9,1.2c-1.6,1.9,0,4.7,1.9,6.4c3.7,3.3,8.1,5.4,12.6,7.6c5.2,2.6,10.5,5.1,15.7,7.6c0.9,0.5,1.9,0.9,2.9,1.3
		c2.5-2.8,4.8-5.9,6.7-9.3C1607.6,450.6,1609.4,444.4,1609.9,438.2L1609.9,438.2z"/>
	<path class="st10" d="M1564.6,433.4c-8.2-2.5-16.7-4.1-25.2-4.6c-5.7-0.4-11.5-0.3-17.1-1.4c-1.6-0.3-3.6-1.2-5.8-2.3
		c-1.7,9-0.7,18.3,2.6,26.6c0.7-0.3,1.4-0.6,2.1-0.9c10.7-4.9,20.5-13,32.3-13.3c2.1,0,4.3,0.2,6.4-0.3
		C1562,436.8,1564.1,435.5,1564.6,433.4L1564.6,433.4z"/>
	<path class="st10" d="M1590.8,472c-0.4-0.3-0.9-0.6-1.4-0.8c-9.1-4.3-18.3-8.6-27.4-12.9c-5.7-2.7-11.7-5.4-17.9-4.8
		c-4.8,0.5-9.2,2.9-13.4,5.3c-1.4,0.8-3.7,1.8-6,2.9c3.8,5.2,8.7,9.7,14.6,13.1c1.8-0.8,3.6-1.7,5.4-2.5c10.2-4.6,22.3-4.9,32.6-0.6
		c2.7,1.1,5.4,2.5,8.1,3.7C1587.4,474.4,1589.1,473.2,1590.8,472L1590.8,472z"/>
	<path class="st5" d="M841.8,822.2c-2,15.9-22.3,36.9-51.4,51.7c-34.8,17.7-69.3,19.8-78.4,5.2c-0.2-0.4-0.5-0.7-0.7-1.1
		c-8.1-15.8,14.3-43.4,50-61.5c2.4-1.2,4.8-2.4,7.2-3.5c6-2.7,12-4.9,17.8-6.7c0,0,0,0,0,0c2.3-0.7,4.6-1.3,6.8-1.9
		c11.6-2.8,22.1-3.6,30.5-2.2c0.3,0.1,0.7,0.1,1,0.2c0.7,0.1,1.3,0.3,1.9,0.4c0.3,0.1,0.6,0.2,0.9,0.2c0.6,0.2,1.2,0.3,1.8,0.5
		c0.6,0.2,1.2,0.4,1.7,0.6c1.1,0.5,2.1,0.9,3.1,1.5c0.5,0.3,0.9,0.6,1.4,0.9c0.4,0.3,0.9,0.6,1.3,1c0.2,0.2,0.4,0.4,0.6,0.5
		c1.3,1.2,2.4,2.6,3.2,4.2c0.2,0.4,0.3,0.7,0.5,1.1C841.9,816.2,842.2,819.1,841.8,822.2z"/>
	<path class="st11" d="M841.8,822.2C830,811,798,814,765.8,830.4c-29.1,14.8-49.4,35.9-51.4,51.7c-1.3-1.2-2.4-2.5-3.2-4.1
		c-8.1-15.8,14.3-43.4,50-61.5c2.4-1.2,4.8-2.4,7.2-3.5c6-2.7,12-4.9,17.8-6.7c0,0,0,0,0,0c2.3-0.7,4.6-1.3,6.8-1.9
		c11.6-2.8,22.1-3.6,30.5-2.2c0.3,0.1,0.7,0.1,1,0.2c0.7,0.1,1.3,0.3,1.9,0.4c0.3,0.1,0.6,0.2,0.9,0.2c0.6,0.2,1.2,0.4,1.8,0.5
		c0.6,0.2,1.2,0.4,1.7,0.6c1.1,0.5,2.1,0.9,3.1,1.5c0.5,0.3,0.9,0.6,1.4,0.9c0.4,0.3,0.9,0.6,1.3,1c0.2,0.2,0.4,0.4,0.6,0.5
		c1.3,1.2,2.4,2.6,3.2,4.2c0.2,0.4,0.3,0.7,0.5,1.1C841.9,816.2,842.2,819.1,841.8,822.2z"/>
	<path class="st5" d="M1276.3,867c-0.2,0.2-0.3,0.5-0.5,0.7c-0.2,0.2-0.4,0.5-0.5,0.7c-0.2,0.2-0.4,0.4-0.6,0.6
		c-0.8,0.7-1.7,1.3-2.7,1.8c-0.2,0.1-0.4,0.2-0.7,0.3c0,0,0,0-0.1,0c-9.8,4.3-28.9,0-47.5-11.7c-22.2-13.9-35.4-33-30.2-43.3
		c0.1-0.3,0.3-0.5,0.4-0.8c3.7-5.9,13.4-7.2,25.3-4.4c1.4,0.3,2.9,0.7,4.4,1.2c1.6,0.5,3.3,1.1,4.9,1.7c3.3,1.3,6.8,2.8,10.2,4.6
		c0.9,0.5,1.7,0.9,2.6,1.4c1.7,0.9,3.5,2,5.2,3.1c1.2,0.7,2.3,1.5,3.5,2.3c1.7,1.1,3.3,2.3,4.9,3.5c9.8,7.5,17,15.7,20.5,23.1
		C1278.2,857.8,1278.7,863.1,1276.3,867z"/>
	<path class="st11" d="M1276.3,867c-0.2,0.2-0.3,0.5-0.5,0.7c-0.2,0.2-0.4,0.5-0.5,0.7c-0.2,0.2-0.4,0.4-0.6,0.6
		c-0.8,0.7-1.7,1.3-2.7,1.8c-0.2,0.1-0.4,0.2-0.7,0.3c0,0,0,0-0.1,0c1.1-5-1.1-11.4-5.9-18.2c-5.4-7.7-14.2-15.8-25.1-22.7
		c-8.9-5.5-17.8-9.4-25.8-11.5c-8.9-2.3-16.6-2.4-21.7-0.2c0.2-0.9,0.5-1.7,0.8-2.5c0.1-0.3,0.3-0.5,0.4-0.8
		c3.7-5.9,13.4-7.2,25.3-4.4c1.4,0.3,2.9,0.7,4.4,1.2c1.6,0.5,3.3,1.1,4.9,1.7c3.3,1.3,6.8,2.8,10.2,4.6c0.9,0.5,1.7,0.9,2.6,1.4
		c1.7,1,3.5,2,5.2,3.1c1.2,0.7,2.3,1.5,3.5,2.3c1.7,1.2,3.3,2.3,4.9,3.5c9.8,7.5,17,15.7,20.5,23.1
		C1278.2,857.8,1278.7,863.1,1276.3,867z"/>
	<path class="st11" d="M1070.3,955.8c-0.2,1.8-0.8,3.5-1.6,5.1c-1.1-14.7-21.3-28.6-47.5-32.1c-25.1-3.3-47.3,4.1-53.5,16.9
		c-0.1-1.2-0.1-2.3,0-3.5c0.3-2.6,1.3-5,2.7-7.2c0.7-1.1,1.5-2.2,2.5-3.2c0.3-0.3,0.7-0.7,1-1c0.7-0.7,1.4-1.3,2.2-1.9
		c0.4-0.3,0.8-0.6,1.2-0.9c0.8-0.6,1.7-1.1,2.6-1.7c1.4-0.8,2.9-1.5,4.4-2.2c1-0.5,2.1-0.9,3.2-1.3c9.7-3.4,22-4.6,35.2-2.8
		C1051.2,924,1072.4,939.9,1070.3,955.8z"/>
	<path class="st5" d="M334.6,527.8c0,8.2-6.7,14.9-14.9,14.9c-8.2,0-14.9-6.7-14.9-14.9c0-8.2,6.7-14.9,14.9-14.9
		C327.9,512.8,334.6,519.5,334.6,527.8L334.6,527.8z"/>
	<path class="st5" d="M1187.7,118.8c-3.7,0-6.7-3-6.7-6.7c0-3.7,3-6.7,6.7-6.7c3.7,0,6.7,3,6.7,6.7
		C1194.4,115.8,1191.4,118.8,1187.7,118.8L1187.7,118.8z"/>
	<path class="st5" d="M1282.6,243.1c-3.7,0-6.7-3-6.7-6.7c0-3.7,3-6.7,6.7-6.7s6.7,3,6.7,6.7
		C1289.3,240.1,1286.3,243.1,1282.6,243.1L1282.6,243.1z"/>
	<path class="st5" d="M163.5,461.1c-3.7,0-6.7-3-6.7-6.7s3-6.7,6.7-6.7c3.7,0,6.7,3,6.7,6.7S167.2,461.1,163.5,461.1L163.5,461.1z"
		/>
	<path class="st4" d="M1121.6,354.1c0,4.8-3.9,8.6-8.6,8.6c-4.8,0-8.6-3.9-8.6-8.6c0-4.8,3.9-8.6,8.6-8.6
		C1117.8,345.5,1121.6,349.3,1121.6,354.1L1121.6,354.1z"/>
	<path class="st4" d="M1484.1,750.5c0,4.8-3.9,8.6-8.6,8.6c-4.8,0-8.6-3.9-8.6-8.6c0-4.8,3.9-8.6,8.6-8.6
		C1480.2,741.9,1484.1,745.7,1484.1,750.5L1484.1,750.5z"/>
	<path class="st4" d="M1738.6,764.8c0,4.8-3.9,8.6-8.6,8.6c-4.8,0-8.6-3.9-8.6-8.6c0-4.8,3.9-8.6,8.6-8.6
		C1734.7,756.2,1738.6,760.1,1738.6,764.8L1738.6,764.8z"/>
	<path class="st4" d="M381.2,890.6c0,4.8-3.9,8.6-8.6,8.6s-8.6-3.9-8.6-8.6c0-4.8,3.9-8.6,8.6-8.6S381.2,885.9,381.2,890.6
		L381.2,890.6z"/>
	<path class="st4" d="M879.2,266.2c0,4.8-3.9,8.6-8.6,8.6c-4.8,0-8.6-3.9-8.6-8.6c0-4.8,3.9-8.6,8.6-8.6
		C875.4,257.6,879.2,261.5,879.2,266.2L879.2,266.2z"/>
	<polygon class="st4" points="774.6,475.8 786.1,482.4 774.4,488.5 767.8,500 761.7,488.3 750.2,481.7 761.9,475.6 768.5,464.1 	"/>
	<polygon class="st4" points="1316.3,354.8 1323.8,359.1 1316.2,363.1 1311.9,370.6 1307.9,363 1300.4,358.7 1308,354.7 
		1312.3,347.2 	"/>
	<polygon class="st4" points="430.1,715.2 437.7,719.5 430,723.5 425.7,731 421.7,723.3 414.2,719 421.9,715 426.1,707.5 	"/>
	<polygon class="st4" points="434.4,409 441.9,413.3 434.3,417.3 430,424.8 426,417.1 418.5,412.8 426.1,408.8 430.4,401.3 	"/>
	<polygon class="st4" points="204.8,865.9 212.3,870.2 204.7,874.2 200.4,881.7 196.4,874.1 188.9,869.8 196.5,865.8 200.8,858.3 	
		"/>
	<polygon class="st4" points="1568.9,654.1 1576.4,658.3 1568.8,662.4 1564.5,669.9 1560.5,662.2 1553,657.9 1560.6,653.9 
		1564.9,646.4 	"/>
	<polygon class="st4" points="1661.6,956.3 1669.1,960.6 1661.4,964.6 1657.1,972.1 1653.1,964.4 1645.6,960.2 1653.3,956.2 
		1657.6,948.6 	"/>
</g>
</svg>
