<?xml version="1.0" encoding="utf-8"?>
<!-- Generator: Adobe Illustrator 22.0.1, SVG Export Plug-In . SVG Version: 6.00 Build 0)  -->
<svg version="1.1" id="Layer_1" xmlns="http://www.w3.org/2000/svg" xmlns:xlink="http://www.w3.org/1999/xlink" x="0px" y="0px"
	 viewBox="0 0 867.6 134.3" style="enable-background:new 0 0 867.6 134.3;" xml:space="preserve">
<style type="text/css">
	.st0{fill:#F9F9F9;}
	.st1{fill:#F44A52;}
</style>
<title>logo_darkBg</title>
<g id="Layer_2_1_">
	<g id="Logos">
		<path class="st0" d="M310.1,133.9c-12.3,0-24-5.1-29.8-14.4h-0.4V130c0,0.8-0.6,1.4-1.4,1.4l0,0h-24.9c-0.8,0-1.4-0.6-1.4-1.4V1.4
			c0-0.8,0.6-1.4,1.4-1.4h27.2c0.8,0,1.4,0.6,1.4,1.4c0,0,0,0,0,0V50h0.4c5.1-6,14.4-12.3,27.8-12.3c26.3,0,43,22.1,43,47.7
			C353.5,110.9,337.4,133.9,310.1,133.9z M303,62.2c-13.5,0-22,11.7-22,23.4s8.4,23.4,22,23.4c14.1,0,21.6-11.7,21.6-23.6
			C324.5,73.8,317,62.2,303,62.2z"/>
		<path class="st0" d="M401.2,134.3c-27.4,0-50.5-19-50.5-48.8c0-30,23-48.1,50.5-48.1c27.6,0,50.7,18.1,50.7,48.1
			C451.9,115.3,428.8,134.3,401.2,134.3z M401.2,62.2c-14.1,0-21.4,11.5-21.4,23.2s7.5,23.6,21.6,23.6S423,97.2,423,85.5
			S415.1,62.2,401.2,62.2z"/>
		<path class="st0" d="M510.1,131.4V81.6c0-10.2-2.7-19.2-13.5-19.2s-16.1,9.1-16.1,19.6v49.4h-30.2V41.7c0-0.8,0.6-1.4,1.4-1.4H478
			c0.8,0,1.4,0.6,1.4,1.4c0,0,0,0,0,0v11.3h0.4c4.6-8,14.5-15.2,27.3-15.2c24.5,0,33.3,19,33.3,37.3v56.3H510.1z"/>
		<path class="st0" d="M589,134.3c-27.4,0-50.5-19-50.5-48.8c0-30,23-48.1,50.5-48.1c27.6,0,50.7,18.1,50.7,48.1
			C639.6,115.3,616.6,134.3,589,134.3z M589,62.2c-14.1,0-21.4,11.5-21.4,23.2s7.5,23.6,21.6,23.6s21.6-11.9,21.6-23.6
			S602.9,62.2,589,62.2z"/>
		<path class="st0" d="M695.5,133.9c-12.3,0-24-5.1-29.8-14.4h-0.4V130c0,0.8-0.6,1.4-1.4,1.4l0,0h-24.9c-0.8,0-1.4-0.6-1.4-1.4
			c0,0,0,0,0,0V1.4c0-0.8,0.6-1.4,1.4-1.4c0,0,0,0,0,0h27.2c0.8,0,1.4,0.6,1.4,1.4c0,0,0,0,0,0V50h0.4c5.1-6,14.5-12.3,27.8-12.3
			c26.3,0,43,22.1,43,47.7C738.9,110.9,722.8,133.9,695.5,133.9z M688.4,62.2c-13.5,0-22,11.7-22,23.4s8.4,23.4,22,23.4
			c14.1,0,21.6-11.7,21.6-23.6C710,73.8,702.5,62.2,688.4,62.2z"/>
		<path class="st0" d="M787.3,134.3c-27.4,0-50.5-19-50.5-48.8c0-30,23-48.1,50.5-48.1c27.7,0,50.7,18.1,50.7,48.1
			C838,115.3,815,134.3,787.3,134.3z M787.3,62.2c-14.1,0-21.4,11.5-21.4,23.2s7.5,23.6,21.6,23.6s21.6-11.9,21.6-23.6
			S801.2,62.2,787.3,62.2z"/>
		<path class="st1" d="M59.1,64.8c-2.5-0.6-5.1-0.9-7.7-0.9C35.3,63.9,30,77.1,30,84.6V130c0,0.8-0.6,1.4-1.4,1.4c0,0,0,0,0,0H1.4
			c-0.8,0-1.4-0.6-1.4-1.4c0,0,0,0,0,0V41.7c0-0.8,0.6-1.4,1.4-1.4c0,0,0,0,0,0h26.1c0.8,0,1.4,0.6,1.4,1.4c0,0,0,0,0,0v11.8h0.4
			c4.6-9.3,13.5-15.7,24.7-15.7c2.2-0.1,4.3,0.2,6.4,0.7L59.1,64.8z"/>
		<path class="st1" d="M146.1,94.1h-66c0.9,10.1,11,17.2,21.8,17.2c9.5,0,15.9-3.8,20.1-9.5l20.9,13.2
			c-8.6,12.4-22.9,19.4-41.3,19.4c-27.4,0-50.1-17.4-50.1-48.1c0-29.8,21.6-48.8,49.2-48.8c26.9,0,45.7,18.5,45.7,49.6
			C146.3,89.3,146.3,91.9,146.1,94.1z M118.7,75.4c0-9.5-6-17.4-17.9-17.4c-11.5,0-20.1,7.9-20.7,17.4H118.7z"/>
		<path class="st1" d="M218.8,131.4c-0.8,0-1.4-0.6-1.4-1.4c0,0,0,0,0,0v-10.5h-0.4c-5.9,9.3-17.6,14.5-29.8,14.5
			c-27.3,0-43.3-23-43.3-48.5c0-25.6,16.6-47.7,43-47.7c13.4,0,22.7,6.2,27.8,12.3h0.4V1.4c0-0.8,0.6-1.4,1.4-1.4h27.2
			c0.8,0,1.4,0.6,1.4,1.4c0,0,0,0,0,0V130c0,0.8-0.6,1.4-1.4,1.4c0,0,0,0,0,0H218.8z M192.4,62.2c-14.1,0-21.6,11.5-21.6,23.2
			c0,11.9,7.5,23.6,21.6,23.6c13.5,0,22-11.7,22-23.4S205.9,62.2,192.4,62.2z"/>
		<circle class="st0" cx="853.1" cy="119.7" r="14.6"/>
	</g>
</g>
</svg>
