<?xml version="1.0" encoding="utf-8"?>
<!-- Generator: Adobe Illustrator 22.0.1, SVG Export Plug-In . SVG Version: 6.00 Build 0)  -->
<svg version="1.1" id="Layer_1" xmlns="http://www.w3.org/2000/svg" xmlns:xlink="http://www.w3.org/1999/xlink" x="0px" y="0px"
	 viewBox="0 0 448 72" style="enable-background:new 0 0 448 72;" xml:space="preserve">
<style type="text/css">
	.st0{clip-path:url(#SVGID_2_);fill:#3A3A3A;}
	.st1{clip-path:url(#SVGID_2_);fill:#F44A52;}
</style>
<g>
	<defs>
		<rect id="SVGID_1_" width="448" height="72"/>
	</defs>
	<clipPath id="SVGID_2_">
		<use xlink:href="#SVGID_1_"  style="overflow:visible;"/>
	</clipPath>
	<path class="st0" d="M166,71.8c-6.5,0-12.8-2.7-15.9-7.7h-0.2v5.6c0,0.4-0.3,0.7-0.7,0.7h-13.3c-0.4,0-0.7-0.3-0.7-0.7v-69
		c0-0.4,0.3-0.7,0.7-0.7h14.6c0.4,0,0.7,0.3,0.7,0.7v26.1h0.2c2.7-3.2,7.7-6.6,14.8-6.6c14.1,0,23,11.9,23,25.6
		C189.2,59.4,180.6,71.8,166,71.8 M162.2,33.4c-7.2,0-11.7,6.3-11.7,12.6c0,6.3,4.5,12.5,11.7,12.5c7.5,0,11.5-6.3,11.5-12.6
		C173.7,39.5,169.7,33.4,162.2,33.4"/>
	<path class="st0" d="M214.7,72c-14.7,0-27-10.2-27-26.2c0-16.1,12.3-25.8,27-25.8c14.8,0,27.1,9.7,27.1,25.8
		C241.8,61.8,229.4,72,214.7,72 M214.7,33.4c-7.5,0-11.4,6.2-11.4,12.5s4,12.6,11.5,12.6c7.5,0,11.5-6.4,11.5-12.6
		S222.1,33.4,214.7,33.4"/>
	<path class="st0" d="M272.9,70.4V43.8c0-5.5-1.5-10.3-7.2-10.3c-5.8,0-8.6,4.9-8.6,10.5v26.5h-16.1V22.3c0-0.4,0.3-0.7,0.7-0.7
		h14.1c0.4,0,0.7,0.3,0.7,0.7v6h0.2c2.4-4.3,7.7-8.1,14.6-8.1c13.1,0,17.8,10.2,17.8,20v30.2H272.9z"/>
	<path class="st0" d="M315,72c-14.7,0-27-10.2-27-26.2c0-16.1,12.3-25.8,27-25.8c14.8,0,27.1,9.7,27.1,25.8
		C342,61.8,329.7,72,315,72 M315,33.4c-7.5,0-11.4,6.2-11.4,12.5s4,12.6,11.5,12.6c7.5,0,11.5-6.4,11.5-12.6S322.4,33.4,315,33.4"/>
	<path class="st0" d="M371.9,71.8c-6.5,0-12.8-2.7-15.9-7.7h-0.2v5.6c0,0.4-0.3,0.7-0.7,0.7h-13.3c-0.4,0-0.7-0.3-0.7-0.7v-69
		c0-0.4,0.3-0.7,0.7-0.7h14.6c0.4,0,0.7,0.3,0.7,0.7v26.1h0.2c2.7-3.2,7.7-6.6,14.9-6.6c14.1,0,23,11.9,23,25.6
		C395.1,59.4,386.5,71.8,371.9,71.8 M368.1,33.4c-7.2,0-11.7,6.3-11.7,12.6c0,6.3,4.5,12.5,11.7,12.5c7.5,0,11.5-6.3,11.5-12.6
		C379.6,39.5,375.6,33.4,368.1,33.4"/>
	<path class="st0" d="M420.9,72c-14.7,0-27-10.2-27-26.2c0-16.1,12.3-25.8,27-25.8c14.8,0,27.1,9.7,27.1,25.8
		C448,61.8,435.7,72,420.9,72 M420.9,33.4c-7.5,0-11.4,6.2-11.4,12.5s4,12.6,11.5,12.6c7.5,0,11.5-6.4,11.5-12.6
		S428.4,33.4,420.9,33.4"/>
	<path class="st1" d="M32.1,35c-1.5-0.4-2.8-0.5-4.1-0.6c-8.6-0.1-11.5,6.9-11.6,10.9L16,69.7c0,0.4-0.3,0.7-0.7,0.7L0.7,70.2
		c-0.4,0-0.7-0.3-0.7-0.8l0.7-47.3c0-0.4,0.3-0.7,0.7-0.7l14,0.2c0.4,0,0.7,0.3,0.7,0.8l-0.1,6.3l0.2,0c2.5-5,7.4-8.3,13.3-8.2
		c1.3,0,2.6,0.1,3.4,0.4L32.1,35z"/>
	<path class="st1" d="M78.4,50.4H43.2c0.5,5.4,5.9,9.2,11.6,9.2c5.1,0,8.5-2.1,10.7-5.1l11.1,7.1C72.1,68.3,64.5,72,54.6,72
		c-14.7,0-26.8-9.3-26.8-25.8c0-16,11.5-26.2,26.3-26.2c14.4,0,24.4,9.9,24.4,26.6C78.5,47.9,78.5,49.3,78.4,50.4 M63.8,40.4
		c0-5.1-3.2-9.3-9.6-9.3c-6.2,0-10.7,4.2-11,9.3H63.8z"/>
	<path class="st1" d="M117.3,70.4c-0.4,0-0.7-0.3-0.7-0.7v-5.6h-0.2c-3.1,5-9.4,7.7-15.9,7.7c-14.6,0-23.2-12.4-23.2-26
		c0-13.7,8.9-25.6,23-25.6c7.1,0,12.1,3.3,14.8,6.6h0.2V0.7c0-0.4,0.3-0.7,0.7-0.7h14.5c0.4,0,0.7,0.3,0.7,0.7v69
		c0,0.4-0.3,0.7-0.7,0.7H117.3z M103.1,33.4c-7.5,0-11.5,6.2-11.5,12.5c0,6.4,4,12.6,11.5,12.6c7.2,0,11.7-6.3,11.7-12.5
		C114.8,39.6,110.4,33.4,103.1,33.4"/>
</g>
</svg>
